<svg width="31" height="27" viewBox="0 0 31 27" fill="none" xmlns="http://www.w3.org/2000/svg">
<path d="M24.7949 26H5.46154V13.1212H1L8 7L15 1L21.8205 6.5V2.51515H24.7949V8.57576L30 13.1212H24.7949V26Z" stroke="#444444" stroke-width="0.5"/>
<path d="M12.7417 18.7012H10.6567L10.1885 20H9.51172L11.4121 15.0234H11.9863L13.8901 20H13.2168L12.7417 18.7012ZM10.855 18.1611H12.5469L11.6992 15.8335L10.855 18.1611ZM17.5542 15.5635H15.9546V20H15.3018V15.5635H13.7056V15.0234H17.5542V15.5635ZM21.0371 17.8022H18.9487V20H18.2925V15.0234H21.3755V15.5635H18.9487V17.2656H21.0371V17.8022Z" fill="#444444"/>
</svg>
