<svg width="53" height="46" viewBox="0 0 53 46" fill="none" xmlns="http://www.w3.org/2000/svg">
<path d="M42.8462 45H8.84615V22.3333H1L13.3103 11.56L25.6207 1L37.6154 10.68V3.66667H42.8462V14.3333L52 22.3333H42.8462V45Z" stroke="#444444" stroke-width="0.5"/>
<path d="M23.7417 31.5812H21.6567L21.1885 32.88H20.5117L22.4121 27.9034H22.9863L24.8901 32.88H24.2168L23.7417 31.5812ZM21.855 31.0411H23.5469L22.6992 28.7135L21.855 31.0411ZM28.5542 28.4435H26.9546V32.88H26.3018V28.4435H24.7056V27.9034H28.5542V28.4435ZM32.0371 30.6823H29.9487V32.88H29.2925V27.9034H32.3755V28.4435H29.9487V30.1456H32.0371V30.6823Z" fill="#444444"/>
</svg>
